{"asset":{"version":"2.0","generator":"SMAJ 3D Lab"},"scene":0,"scenes":[{"nodes":[0,1,2,3,4,5,6,7,8,9,10,11]}],"nodes":[{"name":"Motherboard","mesh":0,"translation":[0,-0.18,0],"scale":[2.7,0.14,1.8]},{"name":"CPU","mesh":1,"translation":[0.45,0.16,0.1],"scale":[0.75,0.17,0.75]},{"name":"RAM_A","mesh":2,"translation":[-1.75,0.18,0.35],"scale":[0.14,0.2,1.05]},{"name":"RAM_B","mesh":2,"translation":[-1.1,0.18,0.35],"scale":[0.14,0.2,1.05]},{"name":"Chipset","mesh":3,"translation":[1.78,0.16,0.8],"scale":[0.45,0.19,0.35]},{"name":"PCIE_0","mesh":2,"translation":[-1.8,0.02,-1.18],"scale":[0.15,0.11,0.675]},{"name":"PCIE_1","mesh":2,"translation":[-1.2,0.02,-1.18],"scale":[0.15,0.11,0.675]},{"name":"PCIE_2","mesh":2,"translation":[-0.6,0.02,-1.18],"scale":[0.15,0.11,0.675]},{"name":"PCIE_3","mesh":2,"translation":[0,0.02,-1.18],"scale":[0.15,0.11,0.675]},{"name":"PCIE_4","mesh":2,"translation":[0.6,0.02,-1.18],"scale":[0.15,0.11,0.675]},{"name":"PCIE_5","mesh":2,"translation":[1.2,0.02,-1.18],"scale":[0.15,0.11,0.675]},{"name":"PCIE_6","mesh":2,"translation":[1.8,0.02,-1.18],"scale":[0.15,0.11,0.675]}],"meshes":[{"name":"Board","primitives":[{"attributes":{"POSITION":0,"NORMAL":1},"indices":2,"material":0}]},{"name":"CPU","primitives":[{"attributes":{"POSITION":0,"NORMAL":1},"indices":2,"material":1}]},{"name":"Slots","primitives":[{"attributes":{"POSITION":0,"NORMAL":1},"indices":2,"material":2}]},{"name":"Metal","primitives":[{"attributes":{"POSITION":0,"NORMAL":1},"indices":2,"material":3}]}],"materials":[{"name":"Board","pbrMetallicRoughness":{"baseColorFactor":[0.04,0.22,0.15,1],"metallicFactor":0.12,"roughnessFactor":0.72}},{"name":"CPU","pbrMetallicRoughness":{"baseColorFactor":[0.72,0.75,0.6,1],"metallicFactor":0.55,"roughnessFactor":0.35}},{"name":"Slots","pbrMetallicRoughness":{"baseColorFactor":[0.05,0.08,0.07,1],"metallicFactor":0.55,"roughnessFactor":0.35}},{"name":"Metal","pbrMetallicRoughness":{"baseColorFactor":[0.32,0.38,0.35,1],"metallicFactor":0.55,"roughnessFactor":0.35}}],"buffers":[{"byteLength":264,"uri":"data:application/octet-stream;base64,"}],"bufferViews":[{"buffer":0,"byteOffset":0,"byteLength":96,"target":34962},{"buffer":0,"byteOffset":96,"byteLength":96,"target":34962},{"buffer":0,"byteOffset":192,"byteLength":72,"target":34963}],"accessors":[{"bufferView":0,"componentType":5126,"count":8,"type":"VEC3","min":[-1,-1,-1],"max":[1,1,1]},{"bufferView":1,"componentType":5126,"count":8,"type":"VEC3"},{"bufferView":2,"componentType":5123,"count":36,"type":"SCALAR"}]}